# xmcd
#
# Track frame offsets:
#	150
#	29107
#	53152
#	82340
#	105790
#	134907
#	153822
#
# Disc length: 2862 seconds
#
# Revision: 4
# Processed by: cddbd v1.4PL0 Copyright (c) Steve Scherf et al.
# Submitted via: MusicWizard 6.0.2
#
DISCID=5b0b2c07
DTITLE=Henderson, Bugs - At Last
DYEAR=1991
DGENRE=Blues
TTITLE0=Boppin´ The Blues/Blues Suede Shoes
TTITLE1=Love Junkie
TTITLE2=Takes My Breath Away
TTITLE3=Honest I Do
TTITLE4=Shuffle King
TTITLE5=Texas Ballbuster
TTITLE6=Hound Dog/Gigglebush Boogie
EXTD=Recorded live on stage at The Armadillo World \nHeadquarters by Onion Audio in Austin, Texas\n
EXTD=P1978  C1991 TAXIM Records TX 1002-2
EXTT0=
EXTT1=
EXTT2=
EXTT3=
EXTT4=
EXTT5=
EXTT6=
PLAYORDER=
